<svg width="190" height="190" viewBox="0 0 190 190" fill="none" xmlns="http://www.w3.org/2000/svg">
<g clip-path="url(#clip0_177_3886)">
<path d="M66.8057 124.844C85.312 118.289 105.504 118.265 124.026 124.773L176.055 143.055C176.273 143.131 176.512 143.202 176.745 143.24C176.292 143.817 175.729 144.316 175.073 144.694L98.2275 189.135C96.2325 190.289 93.7715 190.289 91.7764 189.135L14.9307 144.694C14.4204 144.4 13.9676 144.032 13.5771 143.612C13.8506 143.579 14.1324 143.499 14.3945 143.406L66.8057 124.844ZM95.002 0C96.1149 3.19099e-05 97.228 0.288342 98.2236 0.865234L175.069 45.3057C175.976 45.8294 176.709 46.5777 177.214 47.4541H177.218C177.726 48.334 178.004 49.3389 178.004 50.3896V139.61C178.004 140.111 177.937 140.604 177.814 141.077C177.613 140.789 177.33 140.55 177.101 140.278L96.4375 44.7041C96.3417 44.5906 96.2279 44.4935 96.1006 44.417C95.6717 44.1593 95.1329 44.1612 94.7041 44.4189C94.5792 44.494 94.4659 44.5886 94.3711 44.6992L12.7109 140.01C12.4454 140.276 12.2582 140.558 12.1318 140.841C12.046 140.441 12 140.028 12 139.61V50.3896C12 48.2913 13.1168 46.3566 14.9307 45.3057L91.7725 0.865234C92.7718 0.288243 93.885 2.88288e-05 94.998 0H95.002Z" fill="white"/>
</g>
<defs>
<clipPath id="clip0_177_3886">
<rect width="166" height="190" fill="white" transform="translate(12)"/>
</clipPath>
</defs>
</svg>
